<?xml version="1.0" encoding="utf-8"?>
<svg viewBox="0 0 256 256" xmlns="http://www.w3.org/2000/svg">
  <g transform="matrix(0.1, 0, 0, -0.1, 0, 256)" fill="#000000" stroke="none">
    <path d="M746 1627 l-160 -132 162 -3 161 -2 -3 -135 c-2 -74 -1 -135 3 -135 3 1 60 61 126 135 l120 135 361 0 362 0 128 121 c71 67 136 128 144 135 12 12 -81 14 -615 14 l-630 -1 -159 -132z m1312 85 c-30 -38 -174 -172 -185 -172 -7 0 -13 -4 -13 -10 0 -6 -126 -10 -357 -10 l-357 0 -103 -107 -103 -107 0 81 c0 66 -4 85 -20 106 -20 25 -26 26 -128 29 l-107 3 45 42 c25 23 78 69 119 103 l74 60 574 0 c541 -1 574 -2 561 -18z" style="fill: rgb(0, 0, 255);"/>
    <path d="M1113 1071 l-183 -187 0 -159 0 -160 125 0 125 0 0 124 0 123 216 224 216 224 -158 -2 -159 -1 -182 -186z m411 147 c-5 -7 -87 -93 -184 -191 -96 -98 -178 -186 -182 -195 -4 -9 -7 -55 -7 -102 -2 -134 1 -130 -96 -130 -66 0 -84 3 -89 16 -3 9 -6 68 -6 132 l0 117 178 183 179 182 107 0 c82 0 105 -3 100 -12z" style="fill: rgb(0, 0, 255);"/>
  </g>
</svg>