<?xml version="1.0" encoding="UTF-8"?>
<svg xmlns="http://www.w3.org/2000/svg" xmlns:xlink="http://www.w3.org/1999/xlink" width="869px" height="475px" viewBox="0 0 475 475" version="1.1">
<g id="surface1">
<path style=" stroke:none;fill-rule:nonzero;fill:rgb(0%,0%,100%);fill-opacity:1;" d="M 138.417969 173.117188 L 108.730469 197.609375 L 138.789062 198.164062 L 168.664062 198.535156 L 168.105469 223.585938 C 167.734375 237.3125 167.921875 248.632812 168.664062 248.632812 C 169.21875 248.445312 179.796875 237.3125 192.039062 223.585938 L 214.304688 198.535156 L 348.457031 198.535156 L 372.207031 176.085938 C 385.382812 163.652344 397.441406 152.335938 398.925781 151.035156 C 401.152344 148.808594 383.898438 148.4375 284.8125 148.4375 L 167.921875 148.625 Z M 381.855469 157.34375 C 376.289062 164.394531 349.570312 189.257812 347.53125 189.257812 C 346.230469 189.257812 345.117188 190 345.117188 191.113281 C 345.117188 192.226562 321.738281 192.96875 278.875 192.96875 L 212.636719 192.96875 L 193.523438 212.820312 L 174.414062 232.675781 L 174.414062 217.648438 C 174.414062 205.398438 173.671875 201.875 170.703125 197.976562 C 166.992188 193.339844 165.878906 193.15625 146.953125 192.597656 L 127.101562 192.039062 L 135.449219 184.25 C 140.085938 179.980469 149.921875 171.445312 157.53125 165.136719 L 171.257812 154.003906 L 277.765625 154.003906 C 378.144531 154.1875 384.265625 154.375 381.855469 157.34375 Z M 381.855469 157.34375 "/>
<path style=" stroke:none;fill-rule:nonzero;fill:rgb(0%,0%,100%);fill-opacity:1;" d="M 206.515625 276.28125 L 172.558594 310.976562 L 172.558594 370.164062 L 218.945312 370.164062 L 218.945312 324.335938 L 299.101562 241.210938 L 269.785156 241.582031 L 240.28125 241.765625 Z M 282.773438 249.003906 C 281.84375 250.304688 266.632812 266.257812 248.632812 284.445312 C 230.820312 302.625 215.605469 318.953125 214.863281 320.625 C 214.121094 322.296875 213.5625 330.828125 213.5625 339.550781 C 213.195312 364.414062 213.75 363.671875 195.75 363.671875 C 183.507812 363.671875 180.164062 363.117188 179.238281 360.703125 C 178.679688 359.03125 178.125 348.085938 178.125 336.210938 L 178.125 314.5 L 211.152344 280.546875 L 244.367188 246.777344 L 264.21875 246.777344 C 279.433594 246.777344 283.703125 247.335938 282.773438 249.003906 Z M 282.773438 249.003906 "/>
</g>
</svg>
